<svg width="25" height="24" viewBox="0 0 25 24" fill="none" xmlns="http://www.w3.org/2000/svg">
<path d="M2.53943 17.031C2.5636 18.945 3.69904 20.72 5.74432 22.0349C7.71564 23.3022 10.3227 24 13.0852 24C15.8477 24 18.4548 23.3022 20.4261 22.0349C22.4935 20.7057 23.6321 18.9066 23.6321 16.9688C23.6321 15.2571 22.7206 13.3777 20.4261 11.9026C18.9634 10.9623 17.1509 10.3361 15.1845 10.0752C15.0963 7.51813 14.4109 5.11487 13.2317 3.25653C11.8992 1.15649 10.0993 0 8.16333 0C8.15308 0 8.14282 0.000549319 8.13257 0.000549319C8.10895 -0.000183105 8.08533 0.000183105 8.06134 0.00183105C6.16437 0.041748 4.40399 1.19348 3.09497 3.25653C1.82916 5.25128 1.13208 7.87372 1.13208 10.6406C1.13208 12.938 1.62994 15.1793 2.5387 16.9971C2.53851 17.0085 2.53925 17.0198 2.53943 17.031ZM19.6656 20.8521C17.9183 21.9752 15.5815 22.5938 13.0852 22.5938C10.5889 22.5938 8.25214 21.9752 6.50476 20.8521C5.05109 19.9175 4.17291 18.7366 3.98358 17.4829C6.71295 16.5187 9.76239 16.611 12.4295 17.7541C15.4984 19.0693 18.9466 19.1528 22.0693 17.9965C21.7443 19.0574 20.9188 20.0462 19.6656 20.8521ZM22.1857 16.4471L21.7199 16.6263C18.8814 17.718 15.7789 17.6596 12.9836 16.4615C11.3937 15.7802 9.71057 15.4265 7.98114 15.4102C6.65454 15.3979 5.35156 15.5852 4.09344 15.9666C4.41296 14.8962 5.24152 13.8977 6.50494 13.0856C8.3999 11.8672 10.816 11.3438 13.0852 11.3438C15.5815 11.3438 17.9183 11.9623 19.6656 13.0854C21.1164 14.0182 21.9942 15.1963 22.1857 16.4471ZM12.0443 4.00983C13.0652 5.61896 13.6697 7.70801 13.7726 9.95233C13.5446 9.94281 13.3156 9.9375 13.0852 9.9375C11.7685 9.9375 10.4875 10.0964 9.29346 10.3995C10.2672 7.55493 10.237 4.39471 9.19238 1.56665C10.2491 1.89825 11.2368 2.73706 12.0443 4.00983ZM4.28241 4.00983C5.21826 2.5351 6.39545 1.64246 7.64203 1.44727L7.82092 1.91217C8.90894 4.74078 8.84888 7.95941 7.65613 10.7422C7.62445 10.816 7.59369 10.8906 7.56348 10.9651C6.91327 11.2299 6.30316 11.5433 5.74432 11.9026C4.53748 12.6786 3.64758 13.6148 3.11548 14.6453C2.73865 13.4055 2.53833 12.0374 2.53833 10.6406C2.53833 8.13721 3.15778 5.78229 4.28241 4.00983Z" fill="currentColor"/>
</svg>
