<svg width="25" height="24" viewBox="0 0 25 24" fill="none" xmlns="http://www.w3.org/2000/svg">
<path d="M3.24146 6.32812V15.5156H2.53833C2.14996 15.5156 1.83521 15.8304 1.83521 16.2188C1.83521 18.1573 3.41229 19.7344 5.35083 19.7344H10.0037L9.0611 22.5938H8.16333C7.77496 22.5938 7.46021 22.9085 7.46021 23.2969C7.46021 23.6852 7.77496 24 8.16333 24H16.6008C16.9892 24 17.304 23.6852 17.304 23.2969C17.304 22.9085 16.9892 22.5938 16.6008 22.5938H15.7031L14.7604 19.7344H19.4133C21.3519 19.7344 22.929 18.1573 22.929 16.2188C22.929 15.8304 22.6142 15.5156 22.2258 15.5156H21.5227V6.32812C21.5227 5.16504 20.5764 4.21875 19.4133 4.21875H12.9644C13.0424 3.99866 13.0852 3.76208 13.0852 3.51562C13.0852 3.07013 12.946 2.65686 12.7095 2.3161C13.3989 1.73218 14.2756 1.40625 15.1946 1.40625C15.5829 1.40625 15.8977 1.09149 15.8977 0.703125C15.8977 0.314758 15.5829 0 15.1946 0C13.8189 0 12.5126 0.534851 11.5369 1.4826C11.358 1.43317 11.1701 1.40625 10.9758 1.40625C10.7431 1.40625 10.5193 1.4447 10.3099 1.51465C9.38519 0.545654 8.11975 0 6.75708 0H5.35083C4.96246 0 4.64771 0.314758 4.64771 0.703125C4.64771 2.07916 5.21552 3.32465 6.12885 4.21875H5.35083C4.18774 4.21875 3.24146 5.16504 3.24146 6.32812ZM14.2225 22.5938H10.5417L11.4845 19.7344H13.2798L14.2225 22.5938ZM19.4133 18.3281C19.3313 18.3281 5.84814 18.3281 5.35083 18.3281C4.4342 18.3281 3.65216 17.7398 3.36194 16.9213H21.4022C21.112 17.7398 20.3301 18.3281 19.4133 18.3281ZM4.64771 15.5156V8.4375H6.75708C7.14471 8.4375 7.46021 8.75299 7.46021 9.14062V10.5469C7.46021 11.71 8.40649 12.6562 9.56958 12.6562C10.7327 12.6562 11.679 11.71 11.679 10.5469V9.14062C11.679 8.75299 11.9944 8.4375 12.3821 8.4375C12.7697 8.4375 13.0852 8.75299 13.0852 9.14062V10.5469C13.0852 11.71 14.0315 12.6562 15.1946 12.6562C16.3577 12.6562 17.304 11.71 17.304 10.5469V9.14062C17.304 8.75299 17.6194 8.4375 18.0071 8.4375H20.1165V15.5156H4.64771ZM11.679 3.51562C11.679 3.90326 11.3635 4.21875 10.9758 4.21875C10.5882 4.21875 10.2727 3.90326 10.2727 3.51562C10.2727 3.12799 10.5882 2.8125 10.9758 2.8125C11.3635 2.8125 11.679 3.12799 11.679 3.51562ZM6.75708 1.40625C7.68195 1.40625 8.54419 1.75854 9.19476 2.3877C8.98712 2.71417 8.86646 3.10089 8.86646 3.51562C8.86646 3.74304 8.90308 3.96185 8.96991 4.16711C7.54572 3.9212 6.41193 2.81598 6.12463 1.40625H6.75708ZM19.4133 5.625C19.801 5.625 20.1165 5.94049 20.1165 6.32812V7.03125H18.0071C16.844 7.03125 15.8977 7.97754 15.8977 9.14062V10.5469C15.8977 10.9345 15.5822 11.25 15.1946 11.25C14.8069 11.25 14.4915 10.9345 14.4915 10.5469V9.14062C14.4915 7.97754 13.5452 7.03125 12.3821 7.03125C11.219 7.03125 10.2727 7.97754 10.2727 9.14062V10.5469C10.2727 10.9345 9.95721 11.25 9.56958 11.25C9.18195 11.25 8.86646 10.9345 8.86646 10.5469V9.14062C8.86646 7.97754 7.92017 7.03125 6.75708 7.03125H4.64771V6.32812C4.64771 5.94049 4.9632 5.625 5.35083 5.625H19.4133Z" fill="currentColor"/>
</svg>
