<svg width="32" height="32" viewBox="0 0 32 32" fill="none" xmlns="http://www.w3.org/2000/svg">
<g clip-path="url(#clip0_894_3156)">
<path d="M7.02173 0.5V9.00009L10.5216 6.99995L7.02173 0.5Z" fill="#54596E"/>
<path d="M7.02183 0.499972H6.52173V9.00006C6.52173 9.17859 6.61643 9.34281 6.77092 9.43236C6.92542 9.52191 7.11482 9.52277 7.26989 9.43407L10.7698 7.43394C11.0055 7.29918 11.0908 7.00192 10.962 6.76303L7.46186 0.262794C7.35314 0.0608057 7.12197 -0.0410466 6.89938 0.0150294C6.6768 0.0713914 6.52173 0.270518 6.52173 0.499972H7.02183L6.58152 0.73715L9.85053 6.80766L7.52194 8.13832V0.499972H7.02183L6.58152 0.73715L7.02183 0.499972Z" fill="#54596E"/>
<path d="M25.0216 0.5V9.00009L21.5217 6.99995L25.0216 0.5Z" fill="#54596E"/>
<path d="M25.0216 0.499972H24.5218V8.13832L22.1932 6.80766L25.4619 0.73715L25.0216 0.499972H24.5218H25.0216L24.5816 0.26308L21.0814 6.76303C20.9527 7.00221 21.0379 7.29947 21.2737 7.43422L24.7736 9.43407C24.9286 9.52277 25.118 9.52219 25.2725 9.43264C25.427 9.34281 25.5217 9.17859 25.5217 9.00006V0.499972C25.5217 0.270518 25.3664 0.0713914 25.1441 0.0150294C24.9215 -0.0410466 24.6903 0.0608057 24.5816 0.262794L25.0216 0.499972Z" fill="#54596E"/>
<path d="M18.3027 3.50024H13.7408C10.1231 3.50024 7.18195 6.02567 7.04776 9.19796L7.04748 9.20426L7.02173 25.0002H25.0215L24.9958 9.20426L24.9955 9.19796C24.8613 6.02567 21.9202 3.50024 18.3027 3.50024Z" fill="#FF927D"/>
<path d="M18.3028 3.50011V3H13.7409C11.8152 3.00029 10.0611 3.67148 8.76334 4.77898C7.46644 5.88448 6.62129 7.43916 6.54834 9.17665L6.54805 9.17865V9.18495L6.54776 9.20326L6.52173 24.9992C6.52144 25.1328 6.57351 25.2587 6.66793 25.3534C6.76234 25.4478 6.88823 25.4999 7.02184 25.4999H25.0216C25.1555 25.4999 25.2811 25.4478 25.3756 25.3534C25.47 25.2587 25.522 25.1328 25.5218 24.9992L25.496 9.20326L25.4954 9.18495L25.4951 9.17865V9.17665C25.4219 7.43916 24.5773 5.88448 23.2801 4.77898C21.9824 3.67148 20.2283 3.00029 18.3025 3V4.00021C19.9948 3.99993 21.52 4.5913 22.6307 5.53973C23.7419 6.48987 24.4349 7.78419 24.4961 9.21899L24.4958 9.21699L24.4961 9.22329L24.9959 9.20412L24.4958 9.20498L24.5207 24.5H7.52251L7.5474 9.20498L7.0473 9.20412L7.54712 9.22329L7.5474 9.21699L7.54712 9.21899C7.60834 7.78419 8.30128 6.48987 9.4125 5.53973C10.5231 4.5913 12.0484 3.99993 13.7407 4.00021H18.3025V3.50011H18.3028Z" fill="#54596E"/>
<path d="M23.6534 24.5002H8.8894C6.47699 24.5002 4.52148 26.1765 4.52148 28.2445V31.5003H27.5215V27.8156C27.5215 25.9848 25.7897 24.5002 23.6534 24.5002Z" fill="#999999"/>
<path d="M23.6533 24.5001V24.0002H8.88926C7.5669 24.0005 6.36127 24.4583 5.47521 25.217C4.5903 25.9735 4.02067 27.0489 4.02124 28.2443V31.5001C4.02124 31.6317 4.07474 31.7605 4.16772 31.8537C4.26099 31.9467 4.38974 31.9999 4.52135 31.9999H27.5214C27.653 31.9999 27.7817 31.9467 27.8747 31.8537C27.968 31.7605 28.0212 31.6317 28.0212 31.5001V27.8154C28.0218 26.7385 27.5085 25.7704 26.7137 25.0914C25.9183 24.4102 24.8374 24.0005 23.6533 24.0002V25.0002C24.6051 24.9999 25.4586 25.332 26.0628 25.851C26.6682 26.372 27.0204 27.0615 27.0213 27.8157V31H5.02117V28.2443C5.02203 27.3717 5.43029 26.5752 6.12609 25.9763C6.82103 25.3798 7.79922 24.9996 8.88926 25.0002H23.6533V24.5001Z" fill="#54596E"/>
<path d="M14.6456 28.5L10.5215 31.5001H21.45L17.1199 28.5H14.6456Z" fill="#54596E"/>
<path d="M14.6455 28.5001L14.3514 28.0958L10.2272 31.0959C10.0527 31.2229 9.97915 31.4495 10.0458 31.6549C10.1128 31.8601 10.3056 32 10.5213 32H21.4498C21.6687 32 21.8618 31.8583 21.927 31.6492C21.9926 31.4403 21.9147 31.2138 21.7345 31.0893L17.4046 28.0892C17.3205 28.0309 17.2221 28.0002 17.1197 28.0002H14.6455C14.5408 28.0002 14.4358 28.0343 14.3514 28.0958L14.6455 28.5001V29.0002H16.9635L19.8502 31H12.0585L14.9396 28.9043L14.6455 28.5001V29.0002V28.5001Z" fill="#54596E"/>
<path d="M16.0216 1.00024C11.0512 1.00024 7.02173 5.02942 7.02173 10.0001V14.5002H25.0215V10.0001C25.0215 5.02942 20.9921 1.00024 16.0216 1.00024Z" fill="#999999"/>
<path d="M16.0217 1.00011V0.5C10.7749 0.500286 6.5223 4.7529 6.52173 10V14.5001C6.52173 14.6317 6.57523 14.7605 6.66821 14.8534C6.76148 14.9467 6.89023 14.9999 7.02183 14.9999H25.0216C25.1535 14.9999 25.2823 14.9467 25.3753 14.8534C25.4685 14.7605 25.5218 14.6317 25.5218 14.5001V10C25.5215 4.7529 21.2686 0.500286 16.0217 0.5V1.50021C18.3706 1.50021 20.4924 2.45064 22.0322 3.98958C23.5711 5.52938 24.5215 7.65111 24.5218 10V14H7.52194V10C7.52194 7.65111 8.47237 5.52938 10.0113 3.98958C11.5511 2.45064 13.6731 1.50021 16.0217 1.49993V1.00011Z" fill="#54596E"/>
<path d="M10.8391 10.0002C10.8391 10.0002 11.9329 12.344 14.1204 12.5002C14.1204 12.5002 14.7455 10.7816 10.8391 10.0002Z" fill="white"/>
<path d="M21.1574 10.0002C21.1574 10.0002 20.0636 12.344 17.8761 12.5002C17.8761 12.5002 17.251 10.7816 21.1574 10.0002Z" fill="white"/>
<path d="M14.0215 26.0002V21.0002H18.0215V26.0002" fill="#999999"/>
<path d="M14.5214 26V21.5002H17.5215V26C17.5215 26.2761 17.7455 26.5001 18.0216 26.5001C18.2977 26.5001 18.5214 26.2761 18.5214 26V21.0001C18.5214 20.8682 18.4682 20.7395 18.3749 20.6465C18.2819 20.5532 18.1532 20.5 18.0216 20.5H14.0216C13.89 20.5 13.761 20.5532 13.668 20.6465C13.575 20.7395 13.5215 20.8682 13.5215 21.0001V26C13.5215 26.2761 13.7455 26.5001 14.0216 26.5001C14.2977 26.5001 14.5214 26.2761 14.5214 26Z" fill="#54596E"/>
<path d="M8.52181 14.0002C8.52181 18.1424 11.8795 23.0001 16.0217 23.0001C20.1639 23.0001 23.5219 18.1424 23.5219 14.0002V13.0002L16.0217 14.5003L8.52124 13.0002L8.52181 14.0002Z" fill="#FFD578"/>
<path d="M8.52163 14.0003H8.02153C8.02496 16.2062 8.90244 18.5419 10.3246 20.3621C11.0373 21.271 11.8896 22.0512 12.8515 22.6091C13.8122 23.1667 14.8874 23.5006 16.0215 23.5003C17.1559 23.5006 18.2308 23.1667 19.1918 22.6091C20.6341 21.7714 21.8314 20.4376 22.6783 18.9104C23.5234 17.3817 24.0204 15.6551 24.0218 14.0003V13.0004C24.0218 12.8502 23.9546 12.7088 23.8387 12.6136C23.7228 12.5186 23.5709 12.4805 23.4236 12.51L16.0218 13.9903L8.61919 12.51C8.47214 12.4805 8.32022 12.5186 8.20406 12.6139C8.08819 12.7088 8.02124 12.8505 8.02124 13.0007L8.02181 14.0006L9.02145 14V13.6101L15.9234 14.9905C15.9886 15.0034 16.0544 15.0034 16.1196 14.9905L23.0216 13.6101V14.0003C23.025 15.9366 22.2234 18.1007 20.9313 19.7452C20.2867 20.5683 19.5228 21.2616 18.6903 21.7439C17.8566 22.2266 16.9585 22.5001 16.0218 22.5004C15.0848 22.5001 14.1867 22.2269 13.3533 21.7439C12.1039 21.0212 11.0107 19.8199 10.24 18.426C9.46777 17.0333 9.0206 15.4523 9.02174 14.0003H8.52163Z" fill="#54596E"/>
<path d="M15.5217 17.5002H16.5216C17.0738 17.5002 17.5215 17.0524 17.5215 16.4999C17.5215 15.9478 17.0738 15.5 16.5216 15.5H15.5217C14.9692 15.5 14.5215 15.9478 14.5215 16.4999C14.5215 17.0524 14.9692 17.5002 15.5217 17.5002Z" fill="#FF927D"/>
<path d="M14.0216 17.0002H18.0216C18.2977 17.0002 18.5214 16.7762 18.5214 16.5001C18.5214 16.224 18.2977 16.0002 18.0216 16.0002H14.0216C13.7455 16.0002 13.5215 16.224 13.5215 16.5001C13.5215 16.7762 13.7455 17.0002 14.0216 17.0002Z" fill="#FF927D"/>
<path d="M12.0216 23V25.0001C12.0216 27.7613 9.78318 30 7.02173 30V23" fill="#FF927D"/>
<path d="M11.5219 22.9998V25C11.5216 26.2439 11.019 27.366 10.2039 28.1817C9.38789 28.9968 8.26609 29.4995 7.02183 29.5001V29.9999H7.52194V22.9998C7.52194 22.7237 7.29792 22.5 7.02183 22.5C6.74575 22.5 6.52173 22.7237 6.52173 22.9998V29.9999C6.52173 30.1315 6.57523 30.2602 6.66821 30.3535C6.76148 30.4465 6.89023 30.4997 7.02183 30.4997C10.0597 30.4997 12.5213 28.0375 12.5218 25V22.9998C12.5218 22.7237 12.2978 22.5 12.0217 22.5C11.7457 22.5 11.5219 22.7237 11.5219 22.9998Z" fill="#54596E"/>
</g>
<defs>
<clipPath id="clip0_894_3156">
<rect width="32" height="32" fill="white"/>
</clipPath>
</defs>
</svg>
