<svg width="24" height="24" viewBox="0 0 24 24" fill="none" xmlns="http://www.w3.org/2000/svg">
<path d="M16.7194 9.27585C16.5417 9.09917 16.3012 9 16.0506 9C15.8 9 15.5596 9.09917 15.3818 9.27585L11.9763 12.634L8.61816 9.27585C8.44042 9.09917 8.19999 9 7.94938 9C7.69877 9 7.45834 9.09917 7.2806 9.27585C7.19169 9.36404 7.12112 9.46896 7.07296 9.58456C7.0248 9.70015 7 9.82415 7 9.94937C7 10.0746 7.0248 10.1986 7.07296 10.3142C7.12112 10.4298 7.19169 10.5347 7.2806 10.6229L11.3028 14.6451C11.3909 14.734 11.4959 14.8045 11.6115 14.8527C11.7271 14.9009 11.8511 14.9257 11.9763 14.9257C12.1015 14.9257 12.2255 14.9009 12.3411 14.8527C12.4567 14.8045 12.5616 14.734 12.6498 14.6451L16.7194 10.6229C16.8083 10.5347 16.8789 10.4298 16.927 10.3142C16.9752 10.1986 17 10.0746 17 9.94937C17 9.82415 16.9752 9.70015 16.927 9.58456C16.8789 9.46896 16.8083 9.36404 16.7194 9.27585Z" fill="#F3F4F0"/>
</svg>
