<svg width="24" height="24" viewBox="0 0 24 24" fill="none" xmlns="http://www.w3.org/2000/svg">
<g clip-path="url(#clip0_760_457)">
<path d="M3.47466 22.1236C3.59368 23.1933 4.49493 24.0001 5.57123 24.0001H14.3039C15.3802 24.0001 16.2817 23.1933 16.4005 22.1229L16.5036 21.1876H18.8435C19.8788 21.1876 20.7538 20.4462 20.9243 19.4239L21.8616 13.7531C22.0773 12.4594 21.0768 11.25 19.781 11.25H17.5987L17.6678 10.6238C17.7135 10.2082 17.3878 9.84378 16.9688 9.84378H16.1447C16.2229 9.62369 16.2657 9.38711 16.2657 9.14065C16.2657 8.40146 15.8832 7.75015 15.3061 7.37332L18.9376 2.53127C19.1705 2.22053 19.1075 1.7798 18.797 1.54689C18.4864 1.31379 18.0455 1.37678 17.8126 1.68751L14.7749 5.73763C14.5702 5.0367 14.0108 4.48537 13.3049 4.29274C13.4007 4.05214 13.4532 3.78993 13.4532 3.51564V0.703136C13.4532 0.418773 13.2818 0.162425 13.0191 0.0534765C12.7563 -0.0552884 12.4538 0.00495347 12.2528 0.206004C11.4788 0.979992 10.4497 1.40626 9.35511 1.40626H8.53132C7.36823 1.40626 6.42194 2.35255 6.42194 3.51564C6.42194 3.78993 6.47449 4.05214 6.57025 4.29274C5.67541 4.53701 5.01568 5.35695 5.01568 6.32815C5.01568 6.60244 5.06823 6.86465 5.164 7.10525C4.26916 7.34951 3.60943 8.16946 3.60943 9.14065C3.60943 9.38711 3.65227 9.62369 3.73028 9.84378H2.9063C2.70635 9.84378 2.51592 9.92892 2.38262 10.0778C2.24913 10.2267 2.18541 10.4251 2.20738 10.624C2.23558 10.882 3.47411 22.1185 3.47466 22.1236ZM15.3987 18.375H12.3738C12.1229 18.375 11.891 18.5087 11.7652 18.7261C11.3887 19.377 10.6883 19.7813 9.93757 19.7813C9.18684 19.7813 8.48646 19.377 8.10999 18.7261C7.9842 18.5087 7.75239 18.375 7.50135 18.375H4.47644L4.32134 16.9688H7.50135C7.7522 16.9688 7.9842 16.8349 8.10981 16.6178C8.48646 15.9668 9.18684 15.5625 9.93757 15.5625C10.6883 15.5625 11.3887 15.9668 11.7652 16.6178C11.8908 16.8349 12.1228 16.9688 12.3738 16.9688H15.5536L15.3987 18.375ZM14.3039 22.5938H5.57123C5.21234 22.5938 4.91204 22.3248 4.87249 21.9689L4.63134 19.7813H7.12507C7.78425 20.6576 8.82777 21.1876 9.93757 21.1876C11.0474 21.1876 12.0909 20.6576 12.7501 19.7813H15.2436L15.0027 21.9683C14.9631 22.3248 14.6626 22.5938 14.3039 22.5938ZM19.781 12.6563C20.208 12.6563 20.5473 13.0851 20.4744 13.5227L19.5369 19.1937C19.4803 19.5341 19.1886 19.7813 18.8435 19.7813H16.6585C17.5898 11.3363 16.6621 19.7493 17.4436 12.6563H19.781ZM5.01568 9.14065C5.01568 8.75302 5.33117 8.43753 5.71881 8.43753H8.53132C8.91969 8.43753 9.23445 8.12277 9.23445 7.7344C9.23445 7.34603 8.91969 7.03127 8.53132 7.03127H7.12507C6.73743 7.03127 6.42194 6.71578 6.42194 6.32815C6.42194 5.94051 6.73743 5.62502 7.12507 5.62502H8.53132C8.91969 5.62502 9.23445 5.31026 9.23445 4.9219C9.23445 4.53353 8.91969 4.21877 8.53132 4.21877C8.14368 4.21877 7.82819 3.90328 7.82819 3.51564C7.82819 3.12801 8.14368 2.81252 8.53132 2.81252H9.35511C10.3131 2.81252 11.234 2.56935 12.047 2.11232V3.51564C12.047 3.90328 11.7315 4.21877 11.3438 4.21877C10.9555 4.21877 10.6407 4.53353 10.6407 4.9219C10.6407 5.31026 10.9555 5.62502 11.3438 5.62502H12.7501C13.1377 5.62502 13.4532 5.94051 13.4532 6.32815C13.4532 6.71578 13.1377 7.03127 12.7501 7.03127H11.3438C10.9555 7.03127 10.6407 7.34603 10.6407 7.7344C10.6407 8.12277 10.9555 8.43753 11.3438 8.43753H14.1545H14.1558H14.1565C14.5442 8.43753 14.8595 8.75302 14.8595 9.14065C14.8595 9.52829 14.544 9.84378 14.1563 9.84378H5.71881C5.33117 9.84378 5.01568 9.52829 5.01568 9.14065ZM16.1839 11.25C16.124 11.7939 15.7686 15.0193 15.7087 15.5625H12.7501C12.0909 14.6862 11.0474 14.1563 9.93757 14.1563C8.82777 14.1563 7.78425 14.6862 7.12507 15.5625H4.16644L3.69109 11.25H16.1839Z" fill="#14AD99"/>
</g>
<defs>
<clipPath id="clip0_760_457">
<rect width="24" height="24" fill="white"/>
</clipPath>
</defs>
</svg>
