<svg width="25" height="24" viewBox="0 0 25 24" fill="none" xmlns="http://www.w3.org/2000/svg">
<path d="M3.94458 7.07812H4.70374C4.74969 7.63239 5.88898 21.3448 5.94885 22.0659C6.03931 23.1504 6.96271 24 8.05109 24H16.7131C17.8015 24 18.7249 23.1504 18.8153 22.0657C18.8737 21.3615 20.0157 7.61554 20.0604 7.07812H20.8196C21.2079 7.07812 21.5227 6.76337 21.5227 6.375V4.96875C21.5227 3.96478 20.8176 3.12305 19.8766 2.91119L18.6381 0.392761C18.5198 0.152344 18.2751 0 18.0071 0H6.75708C6.48901 0 6.24438 0.152344 6.1261 0.392761L4.88757 2.91119C3.94659 3.12305 3.24146 3.96478 3.24146 4.96875V6.375C3.24146 6.76337 3.55621 7.07812 3.94458 7.07812ZM6.81586 15.5156H8.427C9.34656 16.4013 10.7966 16.9219 12.3821 16.9219C13.9676 16.9219 15.4176 16.4013 16.3372 15.5156H17.9483L17.594 19.7812H7.17017L6.81586 15.5156ZM18.0651 14.1094H16.0365C15.8327 14.1094 15.639 14.1978 15.5053 14.3516C14.8824 15.0696 13.6856 15.5156 12.3821 15.5156C11.0786 15.5156 9.88177 15.0696 9.25885 14.3516C9.12518 14.1978 8.93146 14.1094 8.72766 14.1094H6.69904L6.58221 12.7031H8.72766C8.93146 12.7031 9.12518 12.6147 9.25885 12.4609C9.88177 11.7429 11.0786 11.2969 12.3821 11.2969C13.6856 11.2969 14.8824 11.7429 15.5053 12.4609C15.639 12.6147 15.8327 12.7031 16.0365 12.7031H18.1819L18.0651 14.1094ZM16.7131 22.5938H8.05109C7.68817 22.5938 7.38037 22.3105 7.35034 21.9492L7.28699 21.1875H17.4772L17.4138 21.949C17.3838 22.3105 17.076 22.5938 16.7131 22.5938ZM18.2988 11.2969H16.3372C15.4176 10.4112 13.9676 9.89062 12.3821 9.89062C10.7966 9.89062 9.34656 10.4112 8.427 11.2969H6.46521L6.11475 7.07812H18.6494L18.2988 11.2969ZM7.19489 1.40625H17.5693L18.2839 2.85938H6.48022L7.19489 1.40625ZM4.64771 4.96875C4.64771 4.58112 4.9632 4.26562 5.35083 4.26562H19.4093C19.4109 4.26562 19.4124 4.26581 19.4139 4.26581H19.415C19.8019 4.26672 20.1165 4.58167 20.1165 4.96875V5.67188H4.64771V4.96875Z" fill="#14AD99"/>
</svg>
