<svg width="25" height="24" viewBox="0 0 25 24" fill="none" xmlns="http://www.w3.org/2000/svg">
<g clip-path="url(#clip0_4523_1780)">
<path d="M22.9299 4.26562C20.9913 4.26562 19.4142 5.84271 19.4142 7.78125V17.6719C19.4142 18.7278 18.634 19.6051 17.6198 19.7576L16.6677 11.1511C17.4513 10.843 18.008 10.0792 18.008 9.1875C18.008 8.25751 17.4026 7.46667 16.5657 7.18689C16.3469 5.37708 15.1418 3.86664 13.5056 3.21057C13.6856 2.90021 13.7892 2.54022 13.7892 2.15625V0.703125C13.7892 0.314758 13.4743 0 13.0861 0H10.2736C9.88525 0 9.57049 0.314758 9.57049 0.703125V2.15625C9.57049 2.54022 9.67413 2.90021 9.85412 3.21057C8.21771 3.86664 7.01287 5.37689 6.79388 7.18689C5.9569 7.46667 5.35174 8.25751 5.35174 9.1875C5.35174 10.0792 5.9082 10.843 6.69189 11.1511L6.52032 12.7031H3.24237C1.90917 12.7031 0.913264 13.9233 1.17364 15.2247L2.01757 19.4918C2.21423 20.4743 3.08398 21.1875 4.08612 21.1875H5.58154L5.52954 21.6577C5.39111 22.9023 6.36505 24 7.62591 24H15.7336C16.9927 24 17.9686 22.9037 17.8302 21.6581L17.7745 21.1553C19.4917 20.9247 20.8205 19.4511 20.8205 17.6719V7.78125C20.8205 6.61816 21.7668 5.67188 22.9299 5.67188C23.318 5.67188 23.633 5.35712 23.633 4.96875C23.633 4.58038 23.318 4.26562 22.9299 4.26562ZM10.9767 2.15625V1.40625H12.383V2.15625C12.383 2.54388 12.0675 2.85938 11.6799 2.85938C11.292 2.85938 10.9767 2.54388 10.9767 2.15625ZM11.6799 4.26562C13.3776 4.26562 14.798 5.4754 15.1246 7.07812H8.23492C8.56158 5.4754 9.98211 4.26562 11.6799 4.26562ZM7.46111 8.48438H15.8986C16.2862 8.48438 16.6017 8.79987 16.6017 9.1875C16.6017 9.57513 16.2862 9.89062 15.8986 9.89062H15.894C15.8935 9.89062 15.8929 9.89062 15.8924 9.89062H7.46661H7.46642H7.46111C7.0733 9.89062 6.75799 9.57513 6.75799 9.1875C6.75799 8.79987 7.0733 8.48438 7.46111 8.48438ZM4.08612 19.7812C3.75213 19.7812 3.46209 19.5436 3.39691 19.2175L2.55279 14.9504C2.46563 14.515 2.79907 14.1094 3.24237 14.1094H6.36468L5.73699 19.7812H4.08612ZM15.7336 22.5938H7.62591C7.20623 22.5938 6.88067 22.2303 6.92718 21.8126C7.00408 21.1183 8.05401 11.6279 8.09063 11.2969H15.2689L16.4326 21.813C16.4783 22.2257 16.1573 22.5938 15.7336 22.5938Z" fill="#14AD99"/>
</g>
<defs>
<clipPath id="clip0_4523_1780">
<rect width="24" height="24" fill="white" transform="translate(0.38208)"/>
</clipPath>
</defs>
</svg>
