<svg width="25" height="24" viewBox="0 0 25 24" fill="none" xmlns="http://www.w3.org/2000/svg">
<g clip-path="url(#clip0_4523_1783)">
<path d="M6.75708 9.84375C8.45483 9.84375 9.87537 8.63397 10.202 7.03125H10.9758C12.1389 7.03125 13.0852 6.08496 13.0852 4.92188C13.0852 3.75879 12.1389 2.8125 10.9758 2.8125C10.2798 2.8125 4.74292 2.8125 3.94458 2.8125C3.55621 2.8125 3.24146 3.12726 3.24146 3.51562V6.32812C3.24146 8.26666 4.81854 9.84375 6.75708 9.84375ZM11.679 4.92188C11.679 5.30951 11.3635 5.625 10.9758 5.625H10.2727V4.21875H10.9758C11.3635 4.21875 11.679 4.53424 11.679 4.92188ZM4.64771 4.21875H8.86646V6.32812C8.86646 7.49121 7.92017 8.4375 6.75708 8.4375C5.59399 8.4375 4.64771 7.49121 4.64771 6.32812V4.21875Z" fill="#383838"/>
<path d="M3.94458 12.75H12.3821C12.7704 12.75 13.0852 12.4352 13.0852 12.0469C13.0852 11.6585 12.7704 11.3438 12.3821 11.3438H3.94458C3.55621 11.3438 3.24146 11.6585 3.24146 12.0469C3.24146 12.4352 3.55621 12.75 3.94458 12.75Z" fill="#383838"/>
<path d="M3.94458 15.5625H12.3821C12.7704 15.5625 13.0852 15.2477 13.0852 14.8594C13.0852 14.471 12.7704 14.1562 12.3821 14.1562H3.94458C3.55621 14.1562 3.24146 14.471 3.24146 14.8594C3.24146 15.2477 3.55621 15.5625 3.94458 15.5625Z" fill="#383838"/>
<path d="M9.56958 16.9688H3.94458C3.55621 16.9688 3.24146 17.2835 3.24146 17.6719C3.24146 18.0602 3.55621 18.375 3.94458 18.375H9.56958C9.95795 18.375 10.2727 18.0602 10.2727 17.6719C10.2727 17.2835 9.95795 16.9688 9.56958 16.9688Z" fill="#383838"/>
<path d="M23.679 21.1875C24.0673 21.1875 24.3821 20.8727 24.3821 20.4844C24.3821 17.231 21.8957 14.5435 18.7102 14.1949V13.4531C18.7102 13.0648 18.3954 12.75 18.0071 12.75C17.6187 12.75 17.304 13.0648 17.304 13.4531V14.1956C16.8165 14.2496 16.3456 14.3593 15.8977 14.5182V0.703125C15.8977 0.314758 15.5829 0 15.1946 0H1.08521C0.696838 0 0.38208 0.314758 0.38208 0.703125V20.4844C0.38208 20.8727 0.696838 21.1875 1.08521 21.1875H13.0852V22.5938H12.3821C11.9937 22.5938 11.679 22.9085 11.679 23.2969C11.679 23.6852 11.9937 24 12.3821 24H23.679C24.0673 24 24.3821 23.6852 24.3821 23.2969C24.3821 22.9085 24.0673 22.5938 23.679 22.5938H22.9758V21.1875H23.679ZM22.9253 19.7812C22.5095 19.7812 13.4393 19.7812 13.1352 19.7812C13.4774 17.3992 15.5319 15.5625 18.0071 15.5625C20.5059 15.5625 22.5798 17.3992 22.9253 19.7812ZM1.78833 1.40625H14.4915V15.2252C12.9807 16.2385 11.9289 17.8848 11.7183 19.7812H1.78833V1.40625ZM21.5696 22.5938H14.4915V21.1875H21.5696V22.5938Z" fill="#383838"/>
</g>
<defs>
<clipPath id="clip0_4523_1783">
<rect width="24" height="24" fill="white" transform="translate(0.38208)"/>
</clipPath>
</defs>
</svg>
